# xmcd CD database file
#
# Track frame offsets:
#	150
#	12287
#	25495
#	38112
#	51947
#	63785
#	77642
#	90517
#	104705
#	119695
#	133907
#	147127
#	158960
#	170232
#	185285
#	197562
#	208982
#	220737
#	233660
#	247130
#
# Disc length: 3482 seconds
#
# Revision: 0
# Processed by: cddbd v1.5PL3 Copyright (c) Steve Scherf et al.
# Submitted via: CDex 1.51
#
DISCID=280d9814
DTITLE=Various Artist - L' Accordeon De Paris Vol. 1
DYEAR=1994
DGENRE=Chanson
TTITLE0=Flambee Montalbanaise
TTITLE1=L' imprevu
TTITLE2=Alhambra
TTITLE3=Miliana
TTITLE4=Joyeuse Polka
TTITLE5=Parles de cristal
TTITLE6=Je ne saurai jamais dire ca
TTITLE7=El Ferrero
TTITLE8=Quand on se promene
TTITLE9=Supreme etreinte
TTITLE10=Valse de L' Abbaye
TTITLE11=Stange Harmony
TTITLE12=Jeannette
TTITLE13=Matelotte
TTITLE14=Swing 39
TTITLE15=Swing Valse
TTITLE16=Christopher Colombus
TTITLE17=Pepee
TTITLE18=Capricieuse
TTITLE19=L' accordeoniste
EXTD=YEAR: 1994
EXTT0=
EXTT1=
EXTT2=
EXTT3=
EXTT4=
EXTT5=
EXTT6=
EXTT7=
EXTT8=
EXTT9=
EXTT10=
EXTT11=
EXTT12=
EXTT13=
EXTT14=
EXTT15=
EXTT16=
EXTT17=
EXTT18=
EXTT19=
PLAYORDER=
